<svg xmlns="http://www.w3.org/2000/svg" width="40" height="40" viewBox="0 0 40 40">
    <g fill="none" fill-rule="evenodd">
        <circle cx="20" cy="20" r="20" fill="#2A2A6C"/>
        <path fill="#FFF" d="M18.66 21.34v1.18h4.44v1.14h-4.44V26h-2.02v-2.34H14.6v-1.14h2.04V12h5.5c1.827 0 3.253.403 4.28 1.21 1.027.807 1.54 1.957 1.54 3.45 0 1.507-.513 2.663-1.54 3.47-1.027.807-2.453 1.21-4.28 1.21h-3.48zm7.28-4.66c0-.947-.327-1.673-.98-2.18-.653-.507-1.593-.76-2.82-.76h-3.48v5.94h3.48c1.213 0 2.15-.263 2.81-.79.66-.527.99-1.263.99-2.21z"/>
    </g>
</svg>
