<svg xmlns="http://www.w3.org/2000/svg" width="40" height="40" viewBox="0 0 40 40">
    <g fill="none" fill-rule="evenodd">
        <circle cx="20" cy="20" r="20" fill="#2A2A6C"/>
        <path fill="#FFF" d="M19.56 21.58c0-.533.09-1.003.27-1.41.18-.407.4-.75.66-1.03s.603-.613 1.03-1c.533-.467.927-.87 1.18-1.21.253-.34.38-.75.38-1.23 0-.653-.253-1.177-.76-1.57s-1.207-.59-2.1-.59c-1.56 0-2.753.527-3.58 1.58l-1.46-1.04a5.486 5.486 0 0 1 2.15-1.66c.873-.387 1.883-.58 3.03-.58 1.453 0 2.607.317 3.46.95.853.633 1.28 1.503 1.28 2.61 0 .547-.09 1.03-.27 1.45-.18.42-.397.77-.65 1.05a14.9 14.9 0 0 1-1.02 1c-.547.493-.95.927-1.21 1.3s-.39.833-.39 1.38h-2zm1.02 4.54c-.373 0-.683-.123-.93-.37a1.237 1.237 0 0 1-.37-.91c0-.36.123-.663.37-.91s.557-.37.93-.37.68.123.92.37.36.55.36.91-.123.663-.37.91-.55.37-.91.37z"/>
    </g>
</svg>
