<svg xmlns="http://www.w3.org/2000/svg" width="187" height="313" viewBox="0 0 187 313">
    <g fill="none" fill-rule="evenodd">
        <path fill="#4E5E9B" d="M58.099 19.79c1.413 36.036-11.305 105.285-16.958 139.195-5.652 33.92-18.661 44.46-24.875 64.27-6.214 19.81 0 89.06 0 89.06H7.932s-4.946-80.9-2.826-93.62c2.119-12.72-6.36-38.86-4.946-57.24 1.413-18.37 27.085-78.543 33.68-97.15C40.435 45.699 49.62 5.835 54.213.712c4.593-5.122 3.886 19.079 3.886 19.079"/>
        <path fill="#CFD4E2" d="M111.471 73.802C100.932 84.573 80.44 118.048 58 165.709c4.736-6.27 19.635-12.03 27.25-17.209 8.832-6.006 32.15-26.496 53.7-53.346 17.195-21.423 31.064-39.552 41.45-69.696L186.998 0l-20.432 25.802c-20.431 25.802-44.333 37-55.095 48"/>
    </g>
</svg>
