<svg xmlns="http://www.w3.org/2000/svg" xmlns:xlink="http://www.w3.org/1999/xlink" width="473" height="1029" viewBox="0 0 473 1029">
    <defs>
        <path id="a" d="M28.968 38.685c0 9.63-4.52 18.172-11.483 23.53-1.71 1.312-2.248 3.69-1.221 5.602l.195.329a4.126 4.126 0 0 0 6.157 1.345c9.162-6.988 15.1-18.181 15.1-30.806 0-19.522-14.196-35.638-32.57-38.048C2.63.304.384 2.282.384 4.897v.387c0 2.189 1.588 3.989 3.713 4.27 14.024 1.873 24.872 14.203 24.872 29.131"/>
        <linearGradient id="b" x1="-11.846%" x2="104.623%" y1="-22.896%" y2="105.909%">
            <stop offset="0%" stop-color="#2A2A6C"/>
            <stop offset="100%" stop-color="#EEAF92"/>
        </linearGradient>
    </defs>
    <g fill="none" fill-rule="evenodd">
        <path fill="#FFF" d="M55 0h418v206H55z"/>
        <path fill="#49485F" d="M288.356 215.506c1.012-10.63-3.813-16.378-3.32-21.878.518-5.5 3.813 1.75 5.084 4.5 1.271 2.75 1.142-9.625 5.474-15.873 4.307-6.251 14.347 1.373 13.335 12.121-1.038 10.75-2.984 15.283-4.462 19.777-1.453 4.494-1.635 7.847-1.635 7.847l-14.476-6.494"/>
        <path fill="#2A2A6C" d="M24.26 554c1.08 24.72 13.944 204.243 14.22 224.789C38.959 812.299 7 967.129 7 967.129c1.91 6.166 12.562 12.449 19.672 6.444 0 0 69.545-190.548 67.937-205.164C91.92 743.604 108 574.154 108 574.154L83.102 539 24.26 554"/>
        <path fill="#49485F" d="M203 167.603l8.513-13.036s11.097-19.457 24.144-11.77c13.073 7.691 9.045 29.767-.202 26.397-11.68-4.259-16.19 2.997-16.19 2.997s-1.9 3.163-4.99 8.294C203.632 198.19 203 167.603 203 167.603"/>
        <path fill="#2A2A6C" d="M156.068 553c21.033 72.817-12.022 184.125-17.15 265.358-1.244 19.397-31.909 160.495-31.909 160.495s-15.133 11.76-17.548-10.184c6.024-31.157 3.634-123.541 1.37-150.6C83.163 726.979 58 577.439 58 577.439L156.068 553"/>
        <path fill="#AAB0CE" d="M163.22 569.479l5.78 56.436s-44.926 3.733-84.45-2.651C45 616.877 16 580.04 16 580.04L26.298 535l136.922 34.479"/>
        <path fill="#4E5E9B" d="M29.571 529.527c33.723-49.718 12.48-34.094 28.3-104.285 20.79-92.11 60.941-65.75 60.941-65.75 10.572 9.408-2.486 4.344 18.155 20.975 6.076 2.61 14.187 2.108 22.925-.06 21.796-5.406 40.327 14.396 23.704 50.854-10.144 22.233-11.074 56.48-6.504 95.136 7.559 63.58-.627 63.594-15.392 70.957-47.684 23.743-164.445-20.17-132.129-67.827"/>
        <path fill="#AAB0CE" d="M163.498 380.673c-9.093 18.184-3.983 143.181 11.572 112.504 0 0 13.627-57.642 28.781-77.702 15.155-20.057 60.919-52.206 74.896-68.522C292.749 330.638 306 219.148 306 219.148L286.938 214s-31.486 98.84-38.35 107.41c-6.863 8.569-85.09 59.263-85.09 59.263M124.107 377.117C104.723 361.036 69.6 399.412 56 434c0 0 1.182-51.368 15.487-72.475 14.28-21.105 66.648-106.166 70.596-111.696C146.03 244.3 203.603 163 203.603 163L221 179.096l-57.9 108.7-38.993 89.32"/>
        <path fill="#49485F" d="M115.517 300c40.56 17.604 39.417 28.452 37.975 37.354-1.417 8.904-7.108 9.268-10.115 19.114-3.007 9.846-.05 15.907 3.579 25.811 2.51 6.857-12.352 5.88-21.647-.58-9.295-6.46-12.55-7.582-8.574-23.277 4.001-15.693-12.128-18.677-13.62-37.622-1.516-18.942 12.402-20.8 12.402-20.8"/>
        <path fill="#2A2A6C" d="M119.066 298.634c10.41 2.742 3.47 33.279 5.14 34.27 0 0-9.408.163-4.703 6.76 4.704 6.595 9.408 1.814 9.408 1.814s1.157 8.41-4.884 11.873c-6.041 3.462-7.66 2.537-7.66 2.537s-15.373 1.435-26.119-10.273c-12.982-14.182 5.836-53.03 28.818-46.98"/>
        <path fill="#2A2A6C" d="M92.061 330.223c4.42 1.175 2.98 9.366 1.313 10.658-1.667 1.294-15.53 8.214-15.505 23.02.025 14.807 10.732 13 11.742 36.657.985 23.658-62.652 40.416-55.732 60.131 6.919 19.715 32.045 6.578 35.555 25.651 1.566 8.557-1.59 18.706-38.182 10.82-36.616-7.885-40.227-42.324-15.177-75.212 25.051-32.889 11.54-50.28 17.804-66.558 6.262-16.274 37.247-30.758 58.182-25.167"/>
        <path fill="#D2DADC" d="M250.487 170.983c16.297 0 29.496-13.201 29.496-29.484s-13.199-29.485-29.496-29.485c-16.271 0-29.47 13.202-29.47 29.485s13.199 29.484 29.47 29.484zm0-67.983c21.26 0 38.513 17.238 38.513 38.499C289 162.762 271.746 180 250.487 180 229.23 180 212 162.762 212 141.499 212 120.238 229.229 103 250.487 103z"/>
        <g transform="matrix(-1 0 0 1 251 103)">
            <mask id="c" fill="#fff">
                <use xlink:href="#a"/>
            </mask>
            <path fill="url(#b)" d="M28.968 38.685c0 9.63-4.52 18.172-11.483 23.53-1.71 1.312-2.248 3.69-1.221 5.602l.195.329a4.126 4.126 0 0 0 6.157 1.345c9.162-6.988 15.1-18.181 15.1-30.806 0-19.522-14.196-35.638-32.57-38.048C2.63.304.384 2.282.384 4.897v.387c0 2.189 1.588 3.989 3.713 4.27 14.024 1.873 24.872 14.203 24.872 29.131" mask="url(#c)"/>
        </g>
        <path fill="#49485F" d="M208 159.405c2.587-8.874 4.893-21.584 6.917-21.403 8.89.785.18 16.987 2.254 22.054 2.075 5.07-3.586 2.053-3.586 2.053L208 159.405"/>
        <path fill="#4E5E9B" d="M89.126 964.64c4.405-3.052 13.67-2.886 22.91 9.705 6.683 9.062 18.43 38.045 29.618 44.793 7.721 4.655 11.67 12.084 0 11.857-13.973-.275-60.4-44.64-58.603-51.748.101-.379.202-.755.304-1.123 1.797-6.7 3.417-11.847 5.771-13.484"/>
        <path fill="#2A2A6C" d="M142 1030.874s-10.414 1.843-20.976-8.573c-14.53-14.356-32.381-30.566-33.77-32.796-2.454-3.958-4.24-7.266-2.653-10.476 1.612-3.207 9.472-3.063 16.166 3.728 2.108 2.126 16.96 26.06 30.001 41.516 5.281 6.255 11.232 6.601 11.232 6.601"/>
        <path fill="#4E5E9B" d="M9.034 962.773c4.424-1.761 10.129-.897 16.764 6.66 7.415 8.43 9.727 40.978 23.149 46.281 9.249 3.655 12.994 11.145-2.363 13.19-18.398 2.45-49.036-42.436-45.266-50.7.201-.444 1.885-13.112 7.716-15.431"/>
        <path fill="#2A2A6C" d="M47 1029.9s-12.824 1.287-20.927-5.387c-7.927-6.515-16.913-18.903-19.993-27.618-2.398-6.774-6.563-13.062-4.544-17.943 1.843-4.44 8.659-6.362 15.424.863 5.831 6.216 3.686 28.288 18.276 42.896 5.907 5.906 11.764 7.19 11.764 7.19"/>
    </g>
</svg>
