<svg xmlns="http://www.w3.org/2000/svg" width="87" height="14" viewBox="0 0 87 14">
    <path fill="#000" fill-rule="evenodd" d="M7.524 13.216c-1.284 0-2.445-.279-3.483-.837a6.247 6.247 0 0 1-2.448-2.322C.999 9.067.702 7.948.702 6.7c0-1.248.297-2.367.891-3.357a6.247 6.247 0 0 1 2.448-2.322C5.079.463 6.246.184 7.542.184c1.092 0 2.079.192 2.961.576a5.93 5.93 0 0 1 2.223 1.656l-1.872 1.728c-.852-.984-1.908-1.476-3.168-1.476-.78 0-1.476.171-2.088.513a3.647 3.647 0 0 0-1.431 1.431c-.342.612-.513 1.308-.513 2.088s.171 1.476.513 2.088a3.647 3.647 0 0 0 1.431 1.431c.612.342 1.308.513 2.088.513 1.26 0 2.316-.498 3.168-1.494l1.872 1.728a5.835 5.835 0 0 1-2.232 1.674c-.888.384-1.878.576-2.97.576zM24.246 13V7.204l-2.898 4.86H20.16l-2.826-4.878V13h-2.538V3.316h2.934l3.096 5.598 3.294-5.598h2.628L26.784 13h-2.538zm15.012-4.806c0 .036-.018.288-.054.756h-7.326c.132.6.444 1.074.936 1.422.492.348 1.104.522 1.836.522.504 0 .951-.075 1.341-.225.39-.15.753-.387 1.089-.711l1.494 1.62c-.912 1.044-2.244 1.566-3.996 1.566-1.092 0-2.058-.213-2.898-.639-.84-.426-1.488-1.017-1.944-1.773-.456-.756-.684-1.614-.684-2.574 0-.948.225-1.803.675-2.565a4.729 4.729 0 0 1 1.854-1.782c.786-.426 1.665-.639 2.637-.639.948 0 1.806.204 2.574.612a4.467 4.467 0 0 1 1.809 1.755c.438.762.657 1.647.657 2.655zm-5.022-2.898c-.636 0-1.17.18-1.602.54-.432.36-.696.852-.792 1.476h4.77c-.096-.612-.36-1.101-.792-1.467-.432-.366-.96-.549-1.584-.549zm15.354.324h-3.276V13h-2.79V5.62h-3.276V3.316h9.342V5.62zm10.584-2.304V13h-2.808V9.4c-.816.408-1.716.612-2.7.612-1.308 0-2.295-.297-2.961-.891-.666-.594-.999-1.515-.999-2.763V3.316h2.808v2.862c0 .588.153 1.014.459 1.278.306.264.747.396 1.323.396a4.71 4.71 0 0 0 2.07-.468V3.316h2.808zm3.078 0h2.79v5.76l4.716-5.76h2.574V13h-2.79V7.24L65.844 13h-2.592V3.316zm17.424 6.012h-1.458V13H76.41V3.316h2.808v3.762h1.512l2.628-3.762h2.988L82.962 7.96 86.58 13h-3.312l-2.592-3.672z"/>
</svg>
